<?xml version="1.0" encoding="UTF-8" standalone="no"?>
<svg 
    role="img" 
    xmlns="http://www.w3.org/2000/svg" 
    width="1000mm"
    height="1000mm"
    viewBox="0 0 1000 1000"
    style="max-width:1.6em; height: auto;">
    
    <path 
        id="path" 
        style="opacity:1;vector-effect:none;fill:#000000;fill-opacity:1;"
        d="M 75 0C 75 0 75 0 75 0C 33 0 0 33 0 75C 0 75 0 925 0 925C 0 967 33 1000 75 1000C 75 1000 925 1000 925 1000C 967 1000 1000 967 1000 925C 1000 925 1000 75 1000 75C 1000 33 967 0 925 0C 925 0 75 0 75 0 M 802 828C 803 828 804 828 805 829C 808 830 809 833 809 836C 809 838 802 888 700 906C 646 915 588 920 529 920C 405 920 315 899 314 899C 311 898 308 895 309 891C 309 888 312 885 316 885C 317 885 403 889 494 889C 584 889 647 885 680 879C 768 861 797 830 797 830C 798 829 800 828 802 828C 802 828 802 828 802 828M 318 777C 321 777 324 780 325 783C 325 787 323 791 319 791C 286 797 255 807 250 814C 262 823 350 840 470 840C 490 840 509 839 527 838C 662 831 742 809 750 801C 754 798 753 795 752 794C 750 791 750 787 752 785C 754 782 758 781 761 783C 762 784 773 791 774 803C 775 808 774 815 767 822C 747 844 643 879 450 879C 450 879 450 879 450 879C 253 879 211 857 196 840C 190 833 187 826 188 817C 192 789 255 781 309 778C 312 778 315 778 318 777C 318 777 318 777 318 777M 387 718C 390 718 393 720 393 723C 394 726 393 729 391 731C 389 732 389 733 389 734C 398 738 445 745 486 745C 498 745 508 744 515 743C 557 737 585 732 585 732C 587 731 589 732 590 733C 590 733 634 759 634 759C 636 760 637 763 637 765C 637 768 635 770 633 771C 630 772 574 799 489 799C 481 799 473 799 466 798C 399 794 360 784 345 767C 340 761 338 753 339 746C 341 720 382 718 387 718C 387 718 387 718 387 718M 366 629C 369 629 371 631 373 634C 374 637 372 641 368 642C 365 644 361 647 360 649C 360 649 359 650 360 651C 365 656 399 662 451 662C 474 662 498 661 518 658C 571 652 607 643 607 643C 609 642 611 643 613 644C 613 644 647 668 647 668C 649 670 651 672 650 675C 649 678 647 680 645 680C 644 681 535 707 451 707C 451 707 451 707 451 707C 443 707 435 707 427 706C 377 703 316 690 314 664C 313 649 330 637 364 629C 365 629 366 629 366 629C 366 629 366 629 366 629M 397 531C 401 531 404 533 404 537C 404 541 402 544 398 545C 362 552 332 564 327 570C 337 574 375 580 450 580C 517 580 614 574 665 560C 669 559 672 561 673 564C 675 567 674 570 672 572C 670 574 615 620 468 625C 454 626 441 626 429 626C 429 626 429 626 429 626C 337 626 277 613 260 590C 255 583 254 575 256 567C 268 532 375 531 397 531C 397 531 397 531 397 531M 748 519C 774 519 806 530 815 581C 830 665 687 696 681 698C 680 698 680 698 679 698C 677 698 674 696 673 694C 672 691 673 687 675 685C 701 668 767 617 762 585C 756 549 692 548 691 548C 688 548 685 546 685 543C 684 540 685 537 688 535C 689 535 718 519 748 519C 748 519 748 519 748 519M 659 249C 661 249 663 250 665 252C 667 255 666 259 663 261C 662 262 582 322 565 354C 550 381 560 395 573 416C 582 429 592 444 597 464C 608 518 545 562 542 564C 540 566 536 566 534 564C 531 562 531 558 532 555C 537 546 549 516 544 500C 542 495 537 488 530 481C 515 461 493 435 493 385C 493 312 650 252 656 249C 657 249 658 249 659 249C 659 249 659 249 659 249M 583 73C 585 73 587 74 589 76C 589 77 637 146 594 216C 574 248 540 276 511 300C 478 326 448 351 447 373C 445 436 491 523 491 524C 492 527 492 531 489 533C 488 534 486 534 485 534C 483 534 482 534 481 533C 475 529 349 431 391 340C 414 289 459 258 498 230C 525 211 549 194 560 175C 586 128 576 82 576 82C 575 78 577 75 580 74C 581 73 582 73 583 73C 583 73 583 73 583 73"
        transform="">
    </path>    
</svg>